<?xml version="1.0" standalone="no"?>
<!DOCTYPE svg PUBLIC "-//W3C//DTD SVG 20010904//EN"
 "http://www.w3.org/TR/2001/REC-SVG-20010904/DTD/svg10.dtd">
<svg version="1.0" xmlns="http://www.w3.org/2000/svg"
 width="339.000000pt" height="338.000000pt" viewBox="0 0 339.000000 338.000000"
 preserveAspectRatio="xMidYMid meet">
<g transform="translate(0.000000,338.000000) scale(0.100000,-0.100000)"
fill="#e2e369" stroke="none">
<path d="M0 2573 l0 -808 805 805 c443 443 805 806 805 807 0 2 -362 3 -805 3
l-805 0 0 -807z"/>
<path d="M1062 2317 l-1062 -1062 2 -593 3 -592 1655 1655 1655 1655 -595 0
-595 0 -1063 -1063z"/>
<path d="M1180 735 l-735 -735 1470 0 1470 0 -735 735 c-404 404 -735 735
-735 735 0 0 -331 -331 -735 -735z"/>
</g>
</svg>
