<?xml version="1.0" encoding="utf-8"?>
<!-- Generator: Adobe Illustrator 27.4.0, SVG Export Plug-In . SVG Version: 6.00 Build 0)  -->
<svg version="1.1" id="streamlinehq-accounting-coins-money-payments-finance-48"
	 xmlns="http://www.w3.org/2000/svg" xmlns:xlink="http://www.w3.org/1999/xlink" x="0px" y="0px" viewBox="0 0 80 80"
	 style="enable-background:new 0 0 80 80;" xml:space="preserve">
<style type="text/css">
	.st0{fill:none;stroke:#000000;stroke-width:1.5;stroke-linecap:round;stroke-linejoin:round;}
</style>
<path class="st0" d="M61.5,8.9c-0.5,0-0.8,0.9-0.8,2l0,27c0,1.1,0.4,2,0.8,2l6,0c0.5,0,0.8-0.9,0.8-2l0-27.1c0-1-0.4-1.9-0.8-1.9
	L61.5,8.9z"/>
<path class="st0" d="M26.8,59.5c-1,3.5,1.5,8.7,4.8,9.4c3.3,0.7,3.7-4.7,3.7-4.7c0.8-6.2,7.2-11.4,9.1-13.3c1.8-1.8,5.8-5,7.4-7.7
	c1.7-2.6,4-5.2,4-5.2l4.8-0.1l0-25.8c-1.1-0.9-5.4-1.2-7.4-1.5c-0.5-0.1-7.9-0.8-8.4-0.8L21.9,9.9c-5.1,0.7-3.6,7.2-3.6,7.2
	c-3.9,3.5-1,8-1,8c-5.4,5.1-1.2,9.2-1.2,9.2c-3.9,3.2-0.6,6.7,2.2,7.9c2.7,1.2,8.9,0.7,12.3,1c3.6,0.1,1.9,2.4,1,4.2
	C30.7,49.3,27.7,56,26.8,59.5L26.8,59.5z"/>
</svg>
