<?xml version="1.0" standalone="no"?>
<!DOCTYPE svg PUBLIC "-//W3C//DTD SVG 20010904//EN"
 "http://www.w3.org/TR/2001/REC-SVG-20010904/DTD/svg10.dtd">
<svg version="1.0" xmlns="http://www.w3.org/2000/svg"
 width="495.000000pt" height="441.000000pt" viewBox="0 0 495.000000 441.000000"
 preserveAspectRatio="xMidYMid meet">
<g transform="translate(0.000000,441.000000) scale(0.100000,-0.100000)"
fill="#e2e369" stroke="none">
<path d="M3093 4333 c356 -512 550 -1189 498 -1733 -22 -222 -98 -547 -126
-536 -19 7 -276 194 -570 415 -693 519 -1272 996 -1658 1363 -87 83 -160 149
-161 147 -7 -7 263 -385 548 -769 292 -394 531 -692 686 -854 l75 -79 -68 42
c-376 230 -958 666 -1577 1180 -290 242 -280 234 -285 229 -5 -4 19 -36 280
-363 814 -1023 1539 -1794 1963 -2090 l84 -58 -51 -27 c-159 -87 -382 -161
-606 -201 -113 -20 -163 -24 -375 -24 -269 0 -374 12 -600 66 -342 81 -720
244 -1048 450 -51 33 -95 59 -98 59 -30 0 167 -273 320 -443 310 -342 638
-594 1020 -782 219 -108 386 -170 602 -226 286 -73 647 -108 910 -89 312 22
465 67 824 241 135 65 280 130 323 144 161 53 315 42 477 -36 132 -63 252
-164 349 -292 24 -31 47 -57 50 -57 4 0 15 24 24 53 57 185 49 390 -24 614
-65 202 -149 352 -347 623 -11 16 -10 30 11 97 92 293 103 698 28 1040 -128
585 -488 1137 -1061 1628 -171 147 -435 345 -459 345 -6 0 13 -35 42 -77z"/>
</g>
</svg>
